<?xml version="1.0" standalone="no"?>
<!DOCTYPE svg PUBLIC "-//W3C//DTD SVG 20010904//EN"
 "http://www.w3.org/TR/2001/REC-SVG-20010904/DTD/svg10.dtd">
<svg version="1.0" xmlns="http://www.w3.org/2000/svg"
 width="512.000000pt" height="492.000000pt" viewBox="0 0 512.000000 492.000000"
 preserveAspectRatio="xMidYMid meet">

<g transform="translate(0.000000,492.000000) scale(0.100000,-0.100000)"
fill="#2536c5" stroke="none">
<path d="M2191 4941 c-14 -15 -35 -55 -45 -87 -26 -86 -51 -120 -99 -141 -111
-47 -239 -117 -302 -166 -133 -101 -239 -254 -302 -432 l-28 -80 0 -353 0
-354 -38 -19 c-45 -24 -101 -98 -118 -157 -14 -52 -7 -119 21 -194 34 -91 221
-364 428 -623 214 -268 213 -265 168 -360 -32 -69 -111 -137 -220 -190 -50
-25 -241 -94 -425 -155 -183 -61 -381 -132 -439 -156 -513 -218 -755 -522
-788 -987 l-7 -97 1543 0 c1230 0 1541 3 1537 13 -89 209 -108 293 -114 492
-7 218 22 371 109 564 32 72 120 211 170 268 65 74 64 67 9 102 -76 46 -129
105 -146 164 -8 28 -15 59 -15 69 0 11 58 90 128 176 174 213 233 292 343 462
111 173 153 253 175 339 30 121 1 202 -86 243 l-50 23 3 360 c2 406 1 419 -73
570 -104 212 -317 394 -655 560 -233 114 -435 175 -586 175 -65 0 -73 -2 -98
-29z"/>
<path d="M4075 1859 c-575 -75 -942 -651 -768 -1203 93 -296 322 -518 630
-613 80 -24 102 -27 253 -27 151 0 173 3 253 27 213 65 397 198 517 372 192
279 209 675 43 973 -184 328 -560 520 -928 471z m265 -419 c18 -18 20 -33 20
-175 l0 -155 149 0 c158 0 195 -7 203 -37 2 -10 2 -78 -1 -151 -5 -103 -9
-135 -21 -142 -8 -5 -86 -10 -172 -10 l-158 0 0 -157 c0 -87 -4 -164 -9 -171
-13 -21 -77 -32 -193 -32 -84 0 -110 3 -122 16 -13 13 -16 44 -16 180 l0 164
-157 0 c-132 0 -159 3 -175 17 -16 14 -18 33 -18 160 l0 143 26 10 c14 6 93
10 175 10 l149 0 0 156 c0 88 4 164 10 175 10 17 23 19 150 19 127 0 142 -2
160 -20z"/>
</g>
</svg>
