<?xml version="1.0" standalone="no"?>
<!DOCTYPE svg PUBLIC "-//W3C//DTD SVG 20010904//EN"
 "http://www.w3.org/TR/2001/REC-SVG-20010904/DTD/svg10.dtd">
<svg version="1.0" xmlns="http://www.w3.org/2000/svg"
 width="512.000000pt" height="492.000000pt" viewBox="0 0 512.000000 492.000000"
 preserveAspectRatio="xMidYMid meet">

<g transform="translate(0.000000,492.000000) scale(0.100000,-0.100000)"
fill="#2536c5" stroke="none">
<path d="M2040 4912 c-40 -6 -68 -40 -91 -109 -25 -77 -66 -127 -117 -143 -59
-19 -197 -95 -261 -144 -122 -94 -225 -226 -276 -353 -50 -123 -57 -194 -53
-511 l3 -293 -34 -16 c-79 -39 -123 -154 -104 -269 16 -91 43 -144 232 -447
163 -263 291 -446 345 -496 14 -14 26 -34 26 -47 0 -29 -73 -127 -138 -186
-145 -130 -294 -199 -681 -314 -481 -144 -654 -259 -781 -519 -68 -140 -110
-331 -110 -502 l0 -53 1499 0 1499 0 51 -63 c285 -359 747 -516 1194 -406 87
21 102 34 73 59 -8 6 -23 31 -32 56 -9 24 -22 44 -29 44 -6 0 -32 13 -56 30
l-45 29 -97 -11 c-334 -39 -672 119 -866 405 -45 67 -106 200 -125 273 -113
439 100 891 508 1080 133 61 222 79 391 78 133 -1 160 -4 240 -28 322 -98 548
-320 641 -633 30 -102 44 -309 26 -403 l-11 -55 92 -92 c50 -51 94 -93 98 -93
3 0 15 35 27 78 111 409 -2 829 -302 1128 -393 391 -985 452 -1451 150 -55
-36 -129 -98 -191 -160 l-101 -102 -35 31 c-20 16 -56 56 -82 88 -59 74 -61
104 -8 146 54 42 173 215 339 492 168 281 184 312 213 407 31 101 25 185 -15
237 -15 21 -42 43 -58 49 l-30 11 6 277 c5 216 3 296 -8 365 -43 267 -167 441
-446 627 -103 69 -308 175 -427 220 -157 60 -361 101 -442 88z"/>
<path d="M3845 1676 c-134 -32 -262 -121 -338 -233 -60 -88 -88 -167 -94 -273
-10 -163 41 -294 162 -416 173 -175 427 -218 663 -113 34 15 66 27 70 27 4 -1
19 -40 33 -87 l26 -86 102 -3 101 -3 0 -104 0 -105 105 0 105 0 0 -95 0 -95
130 0 130 0 0 127 0 127 -270 271 -269 270 25 70 c111 305 -74 637 -401 720
-70 18 -209 18 -280 1z m130 -398 c27 -32 33 -84 15 -119 -13 -24 -61 -49 -96
-49 -40 0 -94 59 -94 103 0 43 31 84 73 95 46 12 74 4 102 -30z"/>
</g>
</svg>
